<?xml version="1.0" encoding="iso-8859-1"?>
<!-- Generator: Adobe Illustrator 19.0.0, SVG Export Plug-In . SVG Version: 6.00 Build 0)  -->
<svg version="1.1" id="Layer_1" xmlns="http://www.w3.org/2000/svg" xmlns:xlink="http://www.w3.org/1999/xlink" x="0px" y="0px"
	 viewBox="0 0 511.999 511.999" style="enable-background:new 0 0 511.999 511.999;" xml:space="preserve">
<g>
	<g>
		<path d="M495.107,65.953H256.001H16.893C7.564,65.953,0,73.516,0,82.846v305.201c0,9.329,7.564,16.893,16.893,16.893h181.033
			c7.25,23.766,29.376,41.106,55.482,41.106c26.107,0,48.233-17.34,55.482-41.106h186.215c9.329,0,16.893-7.564,16.893-16.893
			V82.846C512,73.515,504.436,65.953,495.107,65.953z M33.786,371.154V99.739h205.321v271.415
			C235.444,371.154,37.3,371.154,33.786,371.154z M253.409,412.26c-6.786,0-12.93-2.808-17.331-7.32c40.224,0,31.547,0,34.661,0
			C266.339,409.452,260.196,412.26,253.409,412.26z M478.214,371.154c-8.685,0-196.627,0-205.321,0V99.739h205.321V371.154z"/>
	</g>
</g>
<g>
	<g>
		<path d="M143.768,136.903H96.819c-9.329,0-16.893,7.564-16.893,16.893s7.564,16.893,16.893,16.893h46.949
			c9.329,0,16.893-7.564,16.893-16.893S153.097,136.903,143.768,136.903z"/>
	</g>
</g>
<g>
	<g>
		<path d="M190.681,205.602H96.819c-9.329,0-16.893,7.564-16.893,16.893s7.564,16.893,16.893,16.893h93.862
			c9.329,0,16.893-7.564,16.893-16.893S200.01,205.602,190.681,205.602z"/>
	</g>
</g>
<g>
	<g>
		<path d="M190.681,274.3H96.819c-9.329,0-16.893,7.564-16.893,16.893s7.564,16.893,16.893,16.893h93.862
			c9.329,0,16.893-7.564,16.893-16.893S200.01,274.3,190.681,274.3z"/>
	</g>
</g>
<g>
	<g>
		<path d="M413.669,136.903h-93.862c-9.329,0-16.893,7.564-16.893,16.893s7.564,16.893,16.893,16.893h93.862
			c9.329,0,16.893-7.564,16.893-16.893S422.998,136.903,413.669,136.903z"/>
	</g>
</g>
<g>
	<g>
		<path d="M413.669,205.602h-93.862c-9.329,0-16.893,7.564-16.893,16.893s7.564,16.893,16.893,16.893h93.862
			c9.329,0,16.893-7.564,16.893-16.893S422.998,205.602,413.669,205.602z"/>
	</g>
</g>
<g>
	<g>
		<path d="M413.669,274.3h-93.862c-9.329,0-16.893,7.564-16.893,16.893s7.564,16.893,16.893,16.893h93.862
			c9.329,0,16.893-7.564,16.893-16.893S422.998,274.3,413.669,274.3z"/>
	</g>
</g>
<g>
</g>
<g>
</g>
<g>
</g>
<g>
</g>
<g>
</g>
<g>
</g>
<g>
</g>
<g>
</g>
<g>
</g>
<g>
</g>
<g>
</g>
<g>
</g>
<g>
</g>
<g>
</g>
<g>
</g>
</svg>
